<?xml version="1.0" standalone="no"?>
<!DOCTYPE svg PUBLIC "-//W3C//DTD SVG 20010904//EN"
 "http://www.w3.org/TR/2001/REC-SVG-20010904/DTD/svg10.dtd">
<svg version="1.0" xmlns="http://www.w3.org/2000/svg"
 width="1024.000000pt" height="1024.000000pt" viewBox="0 0 1024.000000 1024.000000"
 preserveAspectRatio="xMidYMid meet">

<g transform="translate(0.000000,1024.000000) scale(0.100000,-0.100000)"
fill="#000000" stroke="none">
<path d="M4910 6491 c-125 -17 -229 -70 -308 -157 -105 -114 -152 -243 -152
-422 0 -356 193 -585 514 -608 262 -19 478 136 531 379 l6 28 -117 -3 -116 -3
-12 -36 c-20 -59 -64 -107 -124 -136 -111 -54 -262 -30 -345 55 -119 123 -144
381 -54 561 86 172 341 204 471 60 27 -30 48 -64 52 -85 l6 -34 120 0 120 0
-6 38 c-21 112 -122 246 -232 304 -91 49 -241 74 -354 59z m143 -18 c-7 -2
-21 -2 -30 0 -10 3 -4 5 12 5 17 0 24 -2 18 -5z m294 -369 c-3 -3 -12 -4 -19
-1 -8 3 -5 6 6 6 11 1 17 -2 13 -5z m-880 -226 c-2 -13 -4 -5 -4 17 -1 22 1
32 4 23 2 -10 2 -28 0 -40z"/>
<path d="M1623 6476 c-130 -42 -183 -124 -183 -287 l0 -89 -90 0 c-107 0 -151
-15 -180 -62 -20 -32 -20 -48 -20 -793 0 -745 0 -761 20 -793 39 -63 26 -62
705 -62 l617 0 29 29 c31 31 35 53 19 95 -21 56 -18 56 -640 56 l-570 0 0 675
0 675 1170 0 1170 0 0 -125 c0 -133 10 -174 49 -195 31 -16 87 -12 112 9 l24
19 0 384 c0 360 -1 385 -19 411 -45 66 28 62 -1126 64 -845 2 -1053 0 -1087
-11z m1394 -152 c-3 -3 -12 -4 -19 -1 -8 3 -5 6 6 6 11 1 17 -2 13 -5z m40 0
c-3 -3 -12 -4 -19 -1 -8 3 -5 6 6 6 11 1 17 -2 13 -5z m150 0 c-3 -3 -12 -4
-19 -1 -8 3 -5 6 6 6 11 1 17 -2 13 -5z m463 -119 l0 -105 -1025 0 -1025 0 0
83 c0 45 4 87 8 93 22 33 43 33 1045 34 l997 0 0 -105z m-2213 -72 c-3 -10 -5
-2 -5 17 0 19 2 27 5 18 2 -10 2 -26 0 -35z m-39 -50 c-10 -2 -28 -2 -40 0
-13 2 -5 4 17 4 22 1 32 -1 23 -4z m229 1 c-3 -3 -12 -4 -19 -1 -8 3 -5 6 6 6
11 1 17 -2 13 -5z m391 -1 c-71 -2 -185 -2 -255 0 -71 1 -13 3 127 3 140 0
198 -2 128 -3z m370 0 c-42 -2 -114 -2 -160 0 -46 1 -11 3 77 3 88 0 125 -2
83 -3z m415 0 c-62 -2 -164 -2 -225 0 -62 1 -12 3 112 3 124 0 174 -2 113 -3z
m670 0 c-100 -2 -266 -2 -370 0 -103 1 -21 2 182 2 204 0 288 -1 188 -2z
m-2326 -210 c-3 -10 -5 -2 -5 17 0 19 2 27 5 18 2 -10 2 -26 0 -35z m0 -220
c-2 -37 -3 -9 -3 62 0 72 1 102 3 68 2 -34 2 -93 0 -130z m2610 -49 c-3 -3
-12 -4 -19 -1 -8 3 -5 6 6 6 11 1 17 -2 13 -5z m-2610 -136 c-2 -24 -4 -7 -4
37 0 44 2 63 4 43 2 -21 2 -57 0 -80z m0 -290 c-1 -46 -3 -9 -3 82 0 91 2 128
3 83 2 -46 2 -120 0 -165z m0 -140 c-2 -13 -4 -5 -4 17 -1 22 1 32 4 23 2 -10
2 -28 0 -40z m0 -90 c-2 -13 -4 -5 -4 17 -1 22 1 32 4 23 2 -10 2 -28 0 -40z
m0 -135 c-2 -16 -4 -5 -4 22 0 28 2 40 4 28 2 -13 2 -35 0 -50z m0 -100 c-3
-10 -5 -4 -5 12 0 17 2 24 5 18 2 -7 2 -21 0 -30z m0 -70 c-3 -10 -5 -4 -5 12
0 17 2 24 5 18 2 -7 2 -21 0 -30z"/>
<path d="M7440 5903 l0 -588 110 3 110 3 0 278 c0 267 1 278 23 321 38 76 123
113 206 90 55 -14 87 -43 107 -96 15 -39 17 -84 18 -319 l1 -274 108 -3 108
-3 -3 335 -3 335 -28 57 c-52 105 -133 152 -267 152 -68 1 -95 -4 -137 -23
-49 -22 -123 -89 -123 -111 0 -6 -3 -10 -8 -10 -4 0 -6 99 -4 220 l3 220 -111
0 -110 0 0 -587z m197 525 c-3 -8 -6 -5 -6 6 -1 11 2 17 5 13 3 -3 4 -12 1
-19z m0 -100 c-3 -7 -5 -2 -5 12 0 14 2 19 5 13 2 -7 2 -19 0 -25z m0 -40 c-3
-8 -6 -5 -6 6 -1 11 2 17 5 13 3 -3 4 -12 1 -19z m-59 -955 c-15 -2 -42 -2
-60 0 -18 2 -6 4 27 4 33 0 48 -2 33 -4z m515 0 c-7 -2 -21 -2 -30 0 -10 3 -4
5 12 5 17 0 24 -2 18 -5z m44 1 c-3 -3 -12 -4 -19 -1 -8 3 -5 6 6 6 11 1 17
-2 13 -5z m71 -1 c-10 -2 -26 -2 -35 0 -10 3 -2 5 17 5 19 0 27 -2 18 -5z"/>
<path d="M5945 6190 c-108 -19 -196 -67 -239 -129 -26 -37 -50 -101 -41 -109
2 -3 46 -7 97 -10 l93 -4 23 32 c42 56 141 78 216 46 71 -30 89 -105 35 -150
-17 -14 -34 -26 -38 -26 -43 0 -256 -33 -295 -46 -66 -22 -140 -95 -156 -155
-18 -65 -8 -168 21 -220 46 -83 148 -125 281 -116 94 6 154 33 203 90 l35 41
0 -60 0 -59 105 0 106 0 -3 340 -3 341 -25 49 c-30 59 -96 108 -174 130 -68
19 -179 26 -241 15z m-238 -226 c-3 -3 -12 -4 -19 -1 -8 3 -5 6 6 6 11 1 17
-2 13 -5z m471 -303 c-5 -93 -29 -140 -85 -166 -113 -54 -234 -11 -237 84 -1
70 43 102 172 121 40 6 87 17 105 24 18 8 36 15 41 15 5 1 7 -34 4 -78z m-141
53 c-3 -3 -12 -4 -19 -1 -8 3 -5 6 6 6 11 1 17 -2 13 -5z m160 -76 c-2 -13 -4
-5 -4 17 -1 22 1 32 4 23 2 -10 2 -28 0 -40z m-550 -105 c-3 -10 -5 -4 -5 12
0 17 2 24 5 18 2 -7 2 -21 0 -30z m611 -200 c-10 -2 -28 -2 -40 0 -13 2 -5 4
17 4 22 1 32 -1 23 -4z"/>
<path d="M6806 6184 c-158 -34 -249 -115 -263 -233 -7 -64 11 -114 59 -167 49
-53 103 -76 257 -108 68 -15 139 -33 156 -42 43 -20 60 -57 43 -92 -21 -43
-71 -65 -148 -65 -81 0 -128 22 -150 72 l-15 33 -65 -6 c-36 -3 -84 -6 -107
-6 -53 0 -55 -15 -17 -95 31 -66 88 -117 163 -147 82 -32 257 -32 356 -1 137
44 217 136 218 250 1 139 -85 209 -310 254 -122 24 -179 43 -205 66 -27 24
-23 75 8 104 22 21 37 24 107 27 73 3 86 1 117 -20 19 -13 39 -34 45 -46 9
-21 16 -22 118 -22 l107 0 -6 28 c-28 113 -127 195 -268 221 -76 14 -114 13
-200 -5z m181 -10 c-3 -3 -12 -4 -19 -1 -8 3 -5 6 6 6 11 1 17 -2 13 -5z m290
-576 c-3 -8 -6 -5 -6 6 -1 11 2 17 5 13 3 -3 4 -12 1 -19z"/>
<path d="M2430 5773 c-14 -3 -58 -20 -99 -40 -174 -83 -301 -286 -301 -481 0
-151 53 -276 165 -387 72 -73 142 -114 229 -136 56 -14 90 -3 107 35 22 47 4
75 -69 108 -121 55 -189 126 -232 245 -47 129 -11 291 89 404 77 88 201 129
331 108 79 -12 129 -34 199 -88 30 -22 65 -41 78 -41 34 0 63 34 63 74 0 27
-9 41 -44 74 -55 51 -147 98 -228 117 -59 14 -229 18 -288 8z m133 -10 c-7 -2
-19 -2 -25 0 -7 3 -2 5 12 5 14 0 19 -2 13 -5z m44 -109 c-3 -3 -12 -4 -19 -1
-8 3 -5 6 6 6 11 1 17 -2 13 -5z m-560 -411 c-3 -10 -5 -4 -5 12 0 17 2 24 5
18 2 -7 2 -21 0 -30z"/>
<path d="M3248 5465 c-210 -53 -394 -204 -488 -400 -26 -55 -53 -122 -60 -149
-20 -85 -23 -205 -7 -291 50 -273 236 -495 488 -580 68 -23 107 -29 205 -33
138 -5 236 14 347 67 293 140 467 485 403 801 -32 155 -85 257 -196 374 -83
88 -185 155 -291 191 -72 24 -102 29 -214 31 -89 2 -148 -1 -187 -11z m342
-185 c262 -88 424 -359 376 -628 -80 -451 -620 -628 -941 -307 -113 113 -165
242 -165 410 1 254 185 484 434 541 83 19 214 12 296 -16z"/>
<path d="M3372 5148 c-6 -7 -12 -26 -14 -42 -2 -24 -10 -32 -43 -43 -53 -17
-108 -63 -129 -107 -23 -48 -21 -143 4 -183 25 -42 75 -66 201 -98 110 -28
139 -45 139 -79 0 -54 -69 -94 -138 -81 -39 7 -82 39 -82 62 0 9 -19 13 -70
13 -66 0 -70 -1 -70 -22 1 -39 36 -104 70 -128 17 -12 51 -28 73 -35 37 -11
42 -16 45 -44 4 -41 37 -58 84 -45 29 8 33 14 36 47 3 29 7 37 23 37 31 0 94
36 122 69 35 42 50 94 45 153 -9 85 -64 133 -189 163 -154 37 -169 46 -169 95
0 82 173 99 203 20 11 -29 13 -30 80 -30 l69 0 -7 33 c-18 84 -74 146 -146
162 -25 6 -29 11 -29 40 0 24 -6 38 -19 45 -27 14 -76 13 -89 -2z"/>
<path d="M1548 5324 c-34 -18 -48 -43 -48 -84 0 -77 42 -100 180 -100 138 0
180 23 180 100 0 77 -42 100 -182 100 -71 -1 -111 -5 -130 -16z m179 -1 c-20
-2 -52 -2 -70 0 -17 2 0 4 38 4 39 0 53 -2 32 -4z m104 -30 c13 -16 12 -17 -3
-4 -10 7 -18 15 -18 17 0 8 8 3 21 -13z m-314 -65 c-3 -7 -5 -2 -5 12 0 14 2
19 5 13 2 -7 2 -19 0 -25z m323 -32 c0 -2 -8 -10 -17 -17 -16 -13 -17 -12 -4
4 13 16 21 21 21 13z"/>
<path d="M8020 5082 c-50 -24 -75 -78 -60 -131 15 -56 50 -81 115 -81 45 0 58
5 84 29 26 25 31 36 31 78 0 58 -19 90 -66 109 -44 18 -62 18 -104 -4z"/>
<path d="M4811 5038 c-36 -96 -405 -1107 -409 -1121 -4 -16 4 -17 113 -15
l118 3 46 133 46 132 215 0 216 0 46 -132 45 -133 123 -3 c114 -2 122 -1 115
15 -4 10 -94 254 -200 543 -106 289 -200 542 -208 563 l-16 37 -121 0 c-116 0
-121 -1 -129 -22z m209 -457 c38 -111 70 -207 70 -212 0 -5 -65 -9 -151 -9
-140 0 -151 1 -144 18 3 9 29 81 56 160 67 193 90 254 95 249 2 -2 35 -95 74
-206z"/>
<path d="M6158 5053 c-2 -4 -4 -95 -3 -200 0 -106 -2 -193 -3 -193 -2 0 -24
18 -49 39 -56 50 -118 71 -208 71 -174 0 -293 -89 -345 -258 -25 -81 -27 -259
-4 -347 42 -163 159 -263 319 -273 105 -7 174 16 241 80 l54 51 0 -62 0 -62
103 3 102 3 0 575 0 575 -102 3 c-56 1 -103 -1 -105 -5z m-122 -472 c75 -34
124 -133 124 -251 0 -157 -87 -262 -215 -259 -113 2 -182 88 -192 240 -7 90 7
157 43 212 47 71 154 97 240 58z"/>
<path d="M6854 4746 c-27 -13 -67 -43 -87 -66 l-37 -44 0 57 0 57 -100 0 -100
0 0 -425 0 -426 105 3 105 3 2 285 c3 267 4 287 24 320 59 102 208 109 271 13
16 -24 18 -58 21 -325 l3 -298 104 0 104 0 3 288 c3 268 4 289 24 322 46 79
152 106 225 57 62 -42 64 -51 67 -374 l3 -293 105 0 105 0 -3 338 -3 337 -27
51 c-55 104 -145 149 -282 142 -61 -4 -93 -11 -132 -31 -50 -25 -114 -87 -114
-109 0 -6 -12 8 -28 30 -55 82 -118 112 -237 112 -52 0 -83 -6 -121 -24z"/>
<path d="M8675 4746 c-27 -13 -67 -40 -87 -61 l-38 -38 0 51 0 52 -105 0 -105
0 0 -425 0 -425 105 0 105 0 0 261 c0 293 6 334 56 384 74 75 214 60 261 -28
16 -28 19 -69 23 -322 l5 -290 103 0 103 0 -1 316 c0 174 -5 330 -10 348 -25
87 -95 161 -179 189 -61 21 -179 15 -236 -12z"/>
<path d="M7970 4325 l0 -426 103 3 102 3 3 423 2 422 -105 0 -105 0 0 -425z"/>
</g>
</svg>
